<svg xmlns="http://www.w3.org/2000/svg" xml:space="preserve" width="2000" height="1500" data-id="lg_kJqEHDO35ZeqHZsaCE" data-version="1"><path fill="#27292a" stroke="transparent" d="M0 0h2000v1500H0z"/><g data-padding="20"><g transform="translate(-1647.059 -1238.047)scale(2.57847)"><path fill="#fdc500" d="M1027.623 822.692h35.26q6.43 0 10.27-2.19t5.8-7.05 2.43-12.54.47-18.34h54.86v91.85h-220.85v-51.73l109.09-127.42h-31.35q-6.42 0-10.34 2.27t-5.8 7.05-2.35 12.54-.47 18.26h-54.86v-91.85h216.93v51.73Z"/><rect width="234.32" height="362.73" x="509.033" y="189.642" fill="none" rx="0" ry="0" transform="translate(400.51 400.01)"/><rect width="709.89" height="71.82" x="437.699" y="433.712" fill="#27292a" rx="0" ry="0" transform="matrix(.79 0 0 .79 400.41 400.04)"/><path fill="#fdc500" d="M1024.683 766.052h-1.21v-4.62h5.52v.99l-4.26 13.15h3.13v-3.54h1.22v4.86h-5.85v-1.15l4.2-13h-2.75Z"/><rect width="7.86" height="26.03" x="622.263" y="357.982" fill="none" rx="0" ry="0" transform="translate(400.51 398.81)"/></g><path fill="transparent" stroke="transparent" stroke-width="2.674" d="M250 264.706h1500v970.588H250z"/></g></svg>